<?xml version="1.0" standalone="no"?>
<svg viewBox="0 0 200 200" xmlns="http://www.w3.org/2000/svg">
  <path fill="#6BBE43" d="M42.2,-72.7C48.6,-61.6,43.5,-39.6,41,-24.7C38.4,-9.8,38.5,-2.2,42.7,10C46.9,22.1,55.3,38.7,53.2,52.3C51.1,66,38.4,76.7,25.2,76.1C12.1,75.4,-1.5,63.3,-13.8,55.7C-26.1,48.1,-37.1,44.9,-49.2,38.4C-61.4,32,-74.7,22.3,-71.4,13.2C-68.2,4.1,-48.4,-4.5,-40.9,-17.8C-33.4,-31,-38.2,-48.9,-33.4,-60.8C-28.6,-72.7,-14.3,-78.7,1.8,-81.4C17.9,-84.2,35.8,-83.9,42.2,-72.7Z" transform="translate(100 100)" />
</svg>
