<?xml version="1.0" standalone="no"?><svg xmlns="http://www.w3.org/2000/svg" viewBox="0 0 1440 320"><path fill="#6cbd44" fill-opacity="1" d="M0,64L30,106.7C60,149,120,235,180,229.3C240,224,300,128,360,80C420,32,480,32,540,80C600,128,660,224,720,266.7C780,309,840,299,900,282.7C960,267,1020,245,1080,250.7C1140,256,1200,288,1260,277.3C1320,267,1380,213,1410,186.7L1440,160L1440,0L1410,0C1380,0,1320,0,1260,0C1200,0,1140,0,1080,0C1020,0,960,0,900,0C840,0,780,0,720,0C660,0,600,0,540,0C480,0,420,0,360,0C300,0,240,0,180,0C120,0,60,0,30,0L0,0Z"></path></svg>